<?xml version="1.0" encoding="UTF-8" standalone="no"?>
<svg
   width="100"
   height="50"
   version="1.1"
   id="svg3"
   sodipodi:docname="ansi-xor.svg"
   inkscape:version="1.4.3 (0d15f75042, 2025-12-25)"
   xmlns:inkscape="http://www.inkscape.org/namespaces/inkscape"
   xmlns:sodipodi="http://sodipodi.sourceforge.net/DTD/sodipodi-0.dtd"
   xmlns="http://www.w3.org/2000/svg"
   xmlns:svg="http://www.w3.org/2000/svg">
  <defs
     id="defs3" />
  <sodipodi:namedview
     id="namedview3"
     pagecolor="#ffffff"
     bordercolor="#000000"
     borderopacity="0.25"
     inkscape:showpageshadow="2"
     inkscape:pageopacity="0.0"
     inkscape:pagecheckerboard="0"
     inkscape:deskcolor="#d1d1d1"
     inkscape:zoom="4.118897"
     inkscape:cx="-5.5840192"
     inkscape:cy="25.856437"
     inkscape:window-width="2560"
     inkscape:window-height="1374"
     inkscape:window-x="0"
     inkscape:window-y="0"
     inkscape:window-maximized="1"
     inkscape:current-layer="svg3" />
  <path
     fill="none"
     stroke="#000"
     stroke-width="2"
     d="M70 25h25M31 15H5M32 35H5"
     id="path1" />
  <path
     fill-rule="evenodd"
     d="M24.09375 5l2 2.4375S31.75 14.437549 31.75 25s-5.65625 17.5625-5.65625 17.5625l-2 2.4375H41.25c2.408076.000001 7.689699.024514 13.625-2.40625s12.536536-7.343266 17.6875-16.875L71.25 25l1.3125-.71875C62.259387 5.21559 46.006574 5 41.25 5H24.09375zm5.875 3H41.25c4.684173 0 18.28685-.130207 27.96875 17C64.451964 33.429075 58.697469 37.68391 53.5 39.8125 48.139339 42.007924 43.658075 42.000001 41.25 42H30c1.873588-3.108434 4.75-9.04935 4.75-17 0-7.973354-2.908531-13.900185-4.78125-17z"
     id="path2" />
  <path
     fill="none"
     stroke="#000"
     stroke-width="2"
     d="M18.09375 5C27 15 27 35 18.09375 45"
     id="path3" />
  <circle
     style="fill:#000000;stroke:none;stroke-width:1.00157"
     id="A"
     cx="5"
     cy="15"
     r="2" />
  <circle
     style="fill:#000000;stroke:none;stroke-width:1.00157"
     id="B"
     cx="5.1184282"
     cy="35"
     r="2" />
  <circle
     style="fill:#000000;stroke:none;stroke-width:1.00157"
     id="OUT"
     cx="95.24575"
     cy="25"
     r="2" />
</svg>
